<svg width="56" height="56" viewBox="0 0 56 56" fill="none" xmlns="http://www.w3.org/2000/svg">
<path d="M53.2663 55.9999H2.85065C1.7023 55.9999 0.75 55.0476 0.75 53.8992C0.75 52.7509 1.7023 51.7986 2.85065 51.7986H53.2663C54.4147 51.7986 55.367 52.7509 55.367 53.8992C55.367 55.0476 54.4147 55.9999 53.2663 55.9999Z" fill="#083387"/>
<path d="M47.7208 4.12795C42.2872 -1.30574 36.9655 -1.44578 31.3918 4.12795L28.0027 7.51701C27.7226 7.79709 27.6106 8.24523 27.7226 8.63736C29.8513 16.0597 35.7891 21.9975 43.2114 24.1262C43.3235 24.1542 43.4355 24.1822 43.5475 24.1822C43.8556 24.1822 44.1357 24.0702 44.3598 23.8461L47.7208 20.457C50.4937 17.7122 51.8381 15.0514 51.8381 12.3625C51.8661 9.58965 50.5217 6.90082 47.7208 4.12795Z" fill="#083387"/>
<path d="M38.1697 26.6749C37.3575 26.2828 36.5732 25.8907 35.817 25.4426C35.2008 25.0785 34.6126 24.6863 34.0245 24.2662C33.5483 23.9581 32.9881 23.51 32.456 23.0618C32.3999 23.0338 32.2039 22.8658 31.9798 22.6417C31.0555 21.8574 30.0192 20.8491 29.0949 19.7288C29.0109 19.6728 28.8709 19.4767 28.6748 19.2246C28.3947 18.8885 27.9186 18.3284 27.4984 17.6841C27.1623 17.264 26.7702 16.6478 26.4061 16.0316C25.9579 15.2754 25.5658 14.5192 25.1737 13.7349C24.905 13.1592 24.6758 12.5966 24.468 12.0562C24.3372 11.716 23.8996 11.6199 23.6419 11.8777L6.60392 28.9156C6.23981 29.2798 5.90371 29.98 5.81968 30.4561L4.30721 41.1835C4.02712 43.0881 4.55929 44.8806 5.73565 46.085C6.74397 47.0653 8.1444 47.5975 9.65687 47.5975C9.99298 47.5975 10.3291 47.5695 10.6652 47.5134L21.4205 46.001C21.9247 45.9169 22.6249 45.5808 22.961 45.2167L39.9918 28.1859C40.2513 27.9264 40.1524 27.4841 39.81 27.3517C39.2787 27.1463 38.7438 26.9237 38.1697 26.6749Z" fill="#083387"/>
</svg>
