<svg width="56" height="56" viewBox="0 0 56 56" fill="none" xmlns="http://www.w3.org/2000/svg">
<path d="M15.3329 5.7931V1.93103C15.3329 0.875402 14.4264 0 13.3332 0C12.24 0 11.3335 0.875402 11.3335 1.93103V5.94759C12.0001 5.87035 12.6133 5.7931 13.3332 5.7931H15.3329Z" fill="#083387"/>
<path d="M36.6662 5.94759V1.93103C36.6662 0.875402 35.7596 0 34.6665 0C33.5733 0 32.6667 0.875402 32.6667 1.93103V5.7931H34.6665C35.3864 5.7931 35.9996 5.87035 36.6662 5.94759Z" fill="#083387"/>
<path d="M51.44 35.3251C49.3867 33.7545 46.8 32.8276 44 32.8276C41.2 32.8276 38.56 33.7803 36.5067 35.3766C33.7333 37.4879 32 40.7835 32 44.4138C32 46.5766 32.64 48.6621 33.7333 50.3614C34.5867 51.7003 35.68 52.8846 36.9867 53.7858C38.96 55.1761 41.36 56.0001 44 56.0001C47.04 56.0001 49.7867 54.9187 51.8933 53.1164C52.8267 52.3697 53.6267 51.4428 54.2667 50.3872C55.36 48.6621 56 46.5766 56 44.4138C56 40.732 54.2133 37.4364 51.44 35.3251ZM44 49.9237C44 46.8856 41.44 44.4138 38.2933 44.4138C41.44 44.4138 44 41.9421 44 38.904C44 41.9421 46.56 44.4138 49.7067 44.4138C46.56 44.4138 44 46.8856 44 49.9237Z" fill="#083387"/>
<path d="M36.6667 5.94745V9.65504C36.6667 10.7107 35.76 11.5861 34.6667 11.5861C33.5733 11.5861 32.6667 10.7107 32.6667 9.65504V5.79297H15.3333V9.65504C15.3333 10.7107 14.4267 11.5861 13.3333 11.5861C12.24 11.5861 11.3333 10.7107 11.3333 9.65504V5.94745C3.46667 6.64262 0 11.5346 0 18.6665V40.5516C0 48.2757 4 53.4252 13.3333 53.4252H24.3467C26.3733 53.4252 27.7333 51.2366 27.2267 49.3314C26.8533 47.941 26.6667 46.4992 26.6667 45.0573C26.6667 39.7019 29.1467 34.7585 33.44 31.4886C36.56 29.0426 40.56 27.678 44.6667 27.678H44.7733C46.4533 27.678 48 26.4937 48 24.8716V18.6665C48 11.5346 44.5333 6.64262 36.6667 5.94745ZM18.6667 39.9079H13.3333C12.24 39.9079 11.3333 39.0325 11.3333 37.9769C11.3333 36.9212 12.24 36.0458 13.3333 36.0458H18.6667C19.76 36.0458 20.6667 36.9212 20.6667 37.9769C20.6667 39.0325 19.76 39.9079 18.6667 39.9079ZM26.6667 27.0343H13.3333C12.24 27.0343 11.3333 26.1589 11.3333 25.1033C11.3333 24.0477 12.24 23.1723 13.3333 23.1723H26.6667C27.76 23.1723 28.6667 24.0477 28.6667 25.1033C28.6667 26.1589 27.76 27.0343 26.6667 27.0343Z" fill="#083387"/>
</svg>
