<svg width="57" height="56" viewBox="0 0 57 56" fill="none" xmlns="http://www.w3.org/2000/svg">
<path d="M40.8335 1.17631L14.0571 10.0751C-3.94219 16.0965 -3.94219 25.9148 14.0571 31.9066L22.004 34.5466L24.6431 42.4962C30.633 60.5013 40.4777 60.5013 46.4676 42.4962L55.393 15.7406C59.3665 3.72729 52.8429 -2.82812 40.8335 1.17631ZM41.7824 17.1347L30.5144 28.4658C30.0696 28.9107 29.5062 29.1184 28.9428 29.1184C28.3794 29.1184 27.8159 28.9107 27.3712 28.4658C26.5112 27.6056 26.5112 26.1818 27.3712 25.3216L38.6392 13.9905C39.4991 13.1303 40.9225 13.1303 41.7824 13.9905C42.6423 14.8507 42.6423 16.2745 41.7824 17.1347Z" fill="#083387"/>
</svg>
